<?xml version="1.0" standalone="no"?>
<!DOCTYPE svg PUBLIC "-//W3C//DTD SVG 20010904//EN"
 "http://www.w3.org/TR/2001/REC-SVG-20010904/DTD/svg10.dtd">
<svg version="1.0" xmlns="http://www.w3.org/2000/svg"
 width="516.000000pt" height="516.000000pt" viewBox="0 0 516.000000 516.000000"
 preserveAspectRatio="xMidYMid meet">
<metadata>
Created by potrace 1.14, written by Peter Selinger 2001-2017
</metadata>
<g transform="translate(0.000000,516.000000) scale(0.100000,-0.100000)"
fill="#000000" stroke="none">
<path d="M2635 4620 c-33 -5 -76 -10 -95 -11 -19 -1 -39 -5 -45 -8 -5 -3 -17
-6 -25 -8 -42 -6 -185 -84 -294 -159 -166 -114 -301 -272 -394 -460 -16 -32
-52 -102 -79 -154 -53 -100 -63 -123 -137 -315 -38 -100 -61 -169 -79 -240 -1
-5 -6 -16 -10 -22 -5 -7 -5 -13 -1 -13 3 0 1 -7 -6 -15 -7 -8 -10 -15 -7 -15
3 0 -4 -39 -14 -87 -11 -49 -24 -128 -29 -178 -5 -49 -13 -110 -17 -135 -12
-83 -6 -341 11 -390 2 -8 7 -44 11 -79 3 -36 8 -68 10 -72 3 -3 7 -24 10 -45
3 -22 8 -50 11 -64 2 -14 6 -35 9 -48 2 -13 7 -32 10 -42 6 -18 11 -42 21 -90
3 -14 10 -43 15 -65 6 -22 18 -74 29 -115 10 -41 23 -93 29 -115 7 -22 14 -49
16 -60 21 -92 28 -114 46 -147 5 -10 29 -66 53 -125 59 -144 70 -171 165 -366
44 -93 81 -171 81 -174 0 -3 19 -43 41 -89 26 -51 49 -84 61 -87 11 -3 24 -19
31 -36 6 -17 15 -31 19 -31 4 0 8 -7 8 -15 0 -8 5 -15 10 -15 6 0 10 -7 10
-16 0 -8 5 -12 10 -9 6 3 10 -1 10 -10 0 -11 6 -14 25 -9 20 5 25 2 25 -12 0
-29 23 -67 41 -70 12 -1 15 4 12 17 -3 10 -8 17 -12 15 -3 -2 -6 6 -6 19 0 30
8 24 29 -19 13 -28 20 -33 39 -28 35 9 47 32 41 82 -6 49 -22 109 -34 125 -4
6 -15 35 -25 65 -10 30 -24 62 -31 71 -8 8 -14 22 -14 30 0 8 -7 24 -15 35 -7
12 -30 68 -49 125 -32 98 -61 168 -107 265 -10 22 -19 44 -19 48 0 4 -9 26
-19 49 -10 23 -38 92 -61 152 -24 61 -46 115 -50 120 -9 14 -53 191 -48 197 1
2 -3 12 -9 23 -6 11 -14 38 -17 60 -4 22 -13 63 -21 90 -8 28 -23 91 -34 140
-16 78 -28 142 -69 388 l-9 47 252 0 c194 0 263 3 301 15 27 8 85 17 129 21
44 3 94 8 110 11 17 2 61 9 98 13 38 5 90 16 115 24 60 18 99 28 137 32 17 3
53 11 80 18 28 8 77 19 110 26 63 12 140 34 190 55 17 7 50 21 75 31 25 10 47
21 50 24 3 3 30 18 60 34 30 16 64 36 75 46 11 9 46 32 79 51 32 19 83 61 115
94 31 33 71 71 88 83 38 27 111 121 135 174 14 29 16 60 13 160 -6 220 -21
422 -33 451 -6 15 -9 27 -6 27 2 0 -2 14 -11 30 -9 17 -13 30 -10 30 2 0 -5
26 -17 57 -21 57 -87 167 -128 213 -12 14 -34 41 -49 60 -35 47 -167 180 -212
213 -19 15 -55 33 -80 42 -24 8 -53 19 -64 24 -18 9 -71 23 -77 20 -2 0 -16 5
-33 11 -36 14 -460 21 -550 10z m508 -306 c124 -31 148 -50 316 -250 31 -37
91 -130 91 -142 0 -5 10 -38 21 -73 16 -47 21 -89 21 -159 0 -52 6 -122 13
-156 7 -34 11 -83 9 -109 -4 -47 -7 -52 -115 -157 -61 -59 -117 -108 -124
-108 -7 0 -35 -17 -62 -38 -76 -60 -243 -133 -345 -151 -84 -14 -288 -60 -347
-77 -70 -21 -161 -36 -237 -39 -33 -1 -69 -5 -80 -8 -10 -4 -41 -9 -69 -13
-27 -3 -57 -9 -65 -13 -8 -4 -114 -7 -235 -6 l-220 1 -3 42 c-5 61 42 273 94
430 26 75 50 142 54 147 4 6 15 34 25 64 10 30 47 111 83 180 35 69 76 148 89
176 56 112 180 263 253 308 19 11 59 39 88 61 66 49 150 86 217 96 28 4 144 8
258 9 160 1 222 -3 270 -15z m-973 -3808 c0 -2 -7 -7 -16 -10 -8 -3 -12 -2 -9
4 6 10 25 14 25 6z"/>
</g>
</svg>
